<?xml version="1.0" standalone="no"?>
<!DOCTYPE svg PUBLIC "-//W3C//DTD SVG 20010904//EN"
 "http://www.w3.org/TR/2001/REC-SVG-20010904/DTD/svg10.dtd">
<svg version="1.0" xmlns="http://www.w3.org/2000/svg"
 width="600.000000pt" height="600.000000pt" viewBox="0 0 600.000000 600.000000"
 preserveAspectRatio="xMidYMid meet">
<metadata>
Created by potrace 1.14, written by Peter Selinger 2001-2017
</metadata>
<g transform="translate(0.000000,600.000000) scale(0.100000,-0.100000)"
fill="#000000" stroke="none">
<path d="M2819 5836 c-2 -2 -40 -6 -84 -10 -72 -6 -120 -12 -235 -30 -19 -3
-82 -17 -140 -31 -146 -35 -142 -34 -170 -44 -14 -5 -50 -17 -80 -26 -150 -46
-374 -147 -527 -236 -91 -54 -194 -119 -203 -129 -3 -3 -17 -13 -32 -23 -71
-45 -245 -194 -354 -303 -357 -356 -606 -787 -737 -1274 -23 -84 -46 -185 -53
-230 -1 -8 -5 -33 -9 -55 -23 -139 -32 -292 -29 -495 1 -124 5 -236 8 -250 3
-14 7 -47 11 -75 35 -322 182 -757 351 -1045 41 -69 169 -263 185 -280 8 -8
25 -31 39 -51 55 -79 245 -282 370 -394 374 -336 944 -603 1430 -670 19 -3 64
-9 100 -14 36 -5 193 -9 350 -9 261 0 362 7 500 33 14 3 41 8 60 11 65 11 256
63 356 97 196 68 380 155 592 282 143 86 347 250 497 400 309 309 529 658 673
1066 51 142 90 293 117 444 8 44 17 96 21 115 11 55 14 668 4 735 -6 33 -12
76 -14 95 -18 127 -93 419 -138 532 -48 123 -63 158 -111 258 -198 410 -461
730 -859 1045 -33 26 -224 152 -273 180 -163 93 -340 174 -505 230 -108 37
-308 92 -370 101 -19 2 -48 8 -65 11 -49 11 -57 12 -118 18 -32 4 -68 9 -80
11 -25 6 -472 15 -478 10z"/>
</g>
</svg>
